#!OML:ASF F:\VICON\USERDATA\INSTALL\rory3\rory3.ASF
:FULLY-SPECIFIED
:DEGREES
455
root -0.0381307 26.7084 -0.971681 -163.746 5.96598 179.15
lowerback 6.92833 2.31182 -3.95979
upperback 0.70535 2.81566 -0.278128
thorax -3.32879 1.47272 1.65527
lowerneck -18.9158 2.075 -8.68027
upperneck 35.9883 2.61835 1.97086
head 15.7529 -0.788378 2.58276
rclavicle 8.29926e-015 -1.16289e-014
rhumerus -29.257 -4.02001 -81.8097
rradius 37.3612
rwrist 20.0372
rhand -20.0068 2.87733
rfingers 7.12502
rthumb 6.33324 -27.008
lclavicle 8.29926e-015 -1.16289e-014
lhumerus -30.4613 6.38459 80.8432
lradius 35.122
lwrist -4.46672
lhand -9.43871 25.4682
lfingers 7.12502
lthumb 16.5241 54.7846
rfemur -5.12259 -1.65734 20.5902
rtibia 11.698
rfoot 12.7152 -5.78981
rtoes 15.9444
lfemur -55.8329 3.44274 -27.8011
ltibia 69.4754
lfoot -25.8935 -5.4365
ltoes -2.05057
456
root -0.040315 26.7701 -1.02918 -163.9 6.03828 179.123
lowerback 7.07628 2.32035 -4.04724
upperback 0.677782 2.81252 -0.291937
thorax -3.44348 1.47462 1.6834
lowerneck -19.113 2.17901 -8.65632
upperneck 36.1457 2.79295 1.94626
head 15.8657 -0.729336 2.60426
rclavicle -1.73688e-014 -6.4605e-015
rhumerus -29.1082 -3.72852 -81.8885
rradius 37.4022
rwrist 20.0075
rhand -19.6706 2.44822
rfingers 7.12502
rthumb 6.65781 -27.4271
lclavicle -1.73688e-014 -6.4605e-015
lhumerus -30.4975 6.49603 80.7487
lradius 35.1012
lwrist -4.46379
lhand -9.56101 25.3344
lfingers 7.12502
lthumb 16.4064 54.6605
rfemur -5.96366 -1.87798 20.2927
rtibia 13.812
rfoot 12.0717 -4.76181
rtoes 12.1621
lfemur -54.9792 3.34233 -27.7665
ltibia 68.6791
lfoot -25.8614 -5.13812
ltoes -2.60585
457
root -0.0406627 26.8321 -1.08454 -163.952 5.99413 179.224
lowerback 7.13778 2.29663 -4.01863
upperback 0.586533 2.77572 -0.248992
thorax -3.57129 1.45787 1.711
lowerneck -19.1474 2.23896 -8.72137
upperneck 36.1583 2.89574 2.00106
head 15.8691 -0.689281 2.6583
rclavicle -1.08089e-014 1.19271e-015
rhumerus -29.0858 -3.57482 -81.9534
rradius 37.6017
rwrist 20.2114
rhand -19.4832 1.77797
rfingers 7.12502
rthumb 6.83871 -28.0916
lclavicle -1.08089e-014 1.19271e-015
lhumerus -30.5436 6.60226 80.6614
lradius 35.0571
lwrist -4.41609
lhand -9.60368 25.4861
lfingers 7.12502
lthumb 16.3653 54.8157
rfemur -6.96302 -1.97863 20.1799
rtibia 16.0947
rfoot 11.0056 -4.00373
rtoes 8.72903
lfemur -54.2324 3.19928 -27.5576
ltibia 67.9812
lfoot -25.8938 -4.91099
ltoes -2.96581
458
root -0.0420255 26.8912 -1.13736 -163.951 5.88025 179.39
lowerback 7.13187 2.26154 -3.89722
upperback 0.367569 2.72693 -0.191281
thorax -3.78988 1.43463 1.70306
lowerneck -18.6636 2.30825 -8.66499
upperneck 36.0553 2.87538 2.01776
head 15.7027 -0.692787 2.63831
rclavicle 1.5207e-014 7.7526e-015
rhumerus -29.3047 -3.50906 -81.9809
rradius 37.7988
rwrist 20.3062
rhand -19.4572 1.27828
rfingers 7.12502
rthumb 6.86385 -28.5905
lclavicle 1.5207e-014 7.7526e-015
lhumerus -30.8803 6.5534 80.5602
lradius 35.0575
lwrist -4.19987
lhand -9.80847 25.5145
lfingers 7.12502
lthumb 16.1681 54.8602
rfemur -7.98656 -2.06492 20.1615
rtibia 18.3098
rfoot 9.84894 -3.28578
rtoes 6.00678
lfemur -53.4656 3.03352 -27.2737
ltibia 67.3679
lfoot -26.0483 -4.63224
ltoes -3.60932
459
root -0.0436785 26.9505 -1.19052 -164.027 5.8668 179.423
lowerback 7.1903 2.24015 -3.9592
upperback 0.271894 2.68777 -0.114936
thorax -3.92652 1.41881 1.8165
lowerneck -18.6194 2.38069 -8.61809
upperneck 36.0668 2.9943 1.90741
head 15.6935 -0.658538 2.60172
rclavicle -2.78299e-015 3.37934e-015
rhumerus -29.2618 -3.33038 -81.9227
rradius 37.8596
rwrist 20.2869
rhand -19.5487 1.22175
rfingers 7.12502
rthumb 6.77547 -28.6498
lclavicle -2.78299e-015 3.37934e-015
lhumerus -31.0469 6.72115 80.5239
lradius 35.031
lwrist -4.06019
lhand -9.79954 25.4891
lfingers 7.12502
lthumb 16.1767 54.8341
rfemur -8.94206 -2.40065 19.9918
rtibia 20.4001
rfoot 9.15823 -2.00796
rtoes 3.36681
lfemur -52.6204 2.91044 -27.1826
ltibia 66.5747
lfoot -25.9836 -4.28181
ltoes -4.59138
